<mxfile host="app.diagrams.net" modified="2024-03-17T17:20:28.190Z" agent="Mozilla/5.0 (Macintosh; Intel Mac OS X 10_15_7) AppleWebKit/537.36 (KHTML, like Gecko) Chrome/122.0.0.0 Safari/537.36" version="24.0.7" etag="fw5s7T_uBQUTN5LAWXo3" type="github">
  <diagram name="第 1 页" id="s6Pef2bry3uG8su1tJ_v">
    <mxGraphModel>
      <root>
        <mxCell id="0" />
        <mxCell id="1" parent="0" />
      </root>
    </mxGraphModel>
  </diagram>
</mxfile>
